<?xml version="1.0" encoding="UTF-8"?>
<svg id="Layer_1" data-name="Layer 1" xmlns="http://www.w3.org/2000/svg" viewBox="0 0 841 238.94">
  <defs>
    <style>
      .cls-1 {
        stroke-width: 0px;
      }
    </style>
  </defs>
  <path class="cls-1" d="M574.63,21.57c10.63,5.4,19.25,9.02,27.23,14.06,7.02,4.43,8.93-.86,12.17-6.13,3.61-5.86,2.22-8.77-2.27-12.59-5.11-4.34-9.45-9.95-13.03-16.9,6.94,5.18,13.9,10.32,20.82,15.55,10.02,7.58,20.77,10.69,32.3,6.32,11.96-4.54,24.24-6.92,36.89-9.33-3.61,5.21-10.73,3.18-13.72,10.37,5.16.35,9.93.75,14.72,1,7.44.39,11.09,6.25,11.66,13.76.7,9.14-5.07,12.7-11.78,12.83-12.54.24-25.06-.86-37.61,1.15-8.21,1.32-11.52,4.93-11.65,15.54-.13,11.03,4.46,12.03,11.54,13.28,14.36,2.52,28.72,5.47,42.8,9.62,5.07,1.49,13.28,3.35,11.45,13.19-1.56,8.38-8.56,7.46-14.14,7.26-13.77-.48-27.53-1.08-41.28-2.09-6.89-.51-10.53,1.49-10.36,10.83.29,16.2-.17,32.42-.39,48.63-.11,8.53,4.34,10.14,10.3,10.35,17.52.63,34.73-2.53,52-5.22,6.92-1.08,13.8-2.16,13.11,11.2-.12,2.42-.87,3.07-1.52,3.33-26.37,10.6-53.31,17.98-81.18,20.29-11.89.98-14.04-6.95-13.76-18.72.52-21.61,3.34-43.06,2.51-64.78-.27-7.17-2.08-10.97-7.83-14.01-8.81-4.65-9.2-11.77-2.21-20.06,13.27-15.74,9.93-13.24.6-30.84-9.32-17.59-25.35-21.55-37.39-37.88Z"/>
  <path class="cls-1" d="M745.64,215.67c-.46-16.63-9.2-29.98-6.34-48.68,3.27-21.44-1.06-44.63-2.78-66.98-1.82-23.73-5.98-46.88-17.63-68.74,2.65.75,3.62.67,3.92,1.17,4.16,6.99,5.42,18.28,11.85,20.84,6.16,2.45,10.78-7.98,16.8-11.51,19-11.13,62.62-.29,75.31,19.82,3.46,5.49,6.1,11.09,2.62,20.2-7.26,19.03-20.17,29.59-34.38,38.96-8.54,5.64-10.44,9.92-1.39,17.88,13.65,12,26.5,25.28,39.66,38.07,10.05,9.76,10.18,13.85.94,25.07-.78.95-.46,2.28,2.37,9.04-6.12-.71-9.55-6-13.6-9.34-16.57-13.67-32.77-27.98-49.23-41.83-3.5-2.94-7.39-8.28-11.63-5.79-3.78,2.23-1.36,8.64-1.63,13.18-.37,6.22-.31,12.48-.46,18.72-.11,4.5-.93,10.3-4.34,11.11-9.37,2.22-9.02,10.39-10.07,18.81ZM778.35,63.31c-17.19-.65-18.83,1.53-17.35,17.15.59,6.21,1.51,12.4,1.69,18.62.28,9.37,3.54,12.22,10.69,7.82,10.41-6.41,20.97-12.5,31.08-19.52,6.96-4.84,6.14-13.76-1.96-17.11-9.09-3.76-18.78-5.48-24.15-6.96Z"/>
  <path class="cls-1" d="M239,212.28c0-28.87-.12-55.57.06-82.27.06-8.89.38-17.05-8.27-21.6-5.01-2.63-5.37-9.5-1.94-13.5,11.39-13.28,10.9-24.4.42-39.08-5-7-4.34-19.92-11.72-28.87,7.08-.01,7.2,8.26,12.55,9.88,1.4-5.47,9.18-8.8,4.71-16.2-3.11-5.14-9.06-7.59-13.48-15.76,11,5.82,18.22,14.07,28.63,17.19,11.04,3.3,21.51,3.89,32.14,2.81,9.29-.94,18.61-.25,27.77-1.61,9.33-1.38,12.13,3.44,12.15,13.34.02,10.09-5.1,13.82-12.36,13.86-12.95.08-25.86-.49-38.82,1.34-12.84,1.81-9.47,12.62-9.65,21.54-.22,10.58,5.71,8.18,11.66,8.5,15.29.81,30.59,3.05,44.93,9.95,4.08,1.96,10.45,3.65,8.86,11.45-1.59,7.77-7.82,7.48-12.98,7.32-13.77-.41-27.55-.93-41.27-2.18-7.98-.73-11.6,1.86-12.27,12.1-.94,14.41-1.04,28.78-1.15,43.2-.08,10.42,4.05,14.54,12.63,14.63,14.24.15,28.31-1.66,42.37-3.89,4.01-.64,8.03-1.25,12.05-1.77,4.5-.57,7.75.72,9.05,6.82,1.45,6.82-2.31,8.6-6.22,9.99-22.1,7.83-44.4,14.63-67.38,17.74-2.41.33-6.55-.36-6.98.87-3.76,10.66-5.07,2.79-7.97-.71-3.37-4.07-3.99,1.98-7.5,4.89Z"/>
  <path class="cls-1" d="M132.99,199.89c-.09-1.85.23-3.91-.35-5.51-1.53-4.17,2.99-11.86-4.48-12.45-8.17-.64-7.12,7.92-7.66,13.37-.45,4.58-.69,9.1-2.92,13.58.38-13.69-1.31-27.33-.99-40.81.59-25.47.32-50.85-1.18-76.23-.22-3.82-.31-7.86-1.45-11.34-3.99-12.17-9.27-23.84.75-35.94,2.6-3.14-2.83-8.69-.42-13.85,21.56,34.81,42.96,69.35,66.53,107.41.72-25.55-.5-46.71-4.44-67.49-3.25-17.14,1.36-24.21,16-23.35,4.26.25,2.31,3.68,3.08,5.72,9.5,25.1,6.93,51.74,7.01,78.03.06,20.6.71,40.8,4.59,61.36,2.78,14.72,1.23,30.62,11.65,46.56-8.96-5.19-9.48-13.1-13.04-18.24-2.88-4.16-3.57-12.04-10.13-10.02-6.18,1.91-2.79,9.46-6.17,15.1,3.85-50.08-27.12-76.29-50.7-108.13.19,27.94-.64,55.41-5.7,82.24Z"/>
  <path class="cls-1" d="M362.23,39.49c16.56,34.25,37.72,63.72,58.74,98.16,1.56-25.66-1.43-47.04-4.79-68.34-2.77-17.59.4-21.23,15.53-18.86,3.07.48,3.79.54,5.1,4.1,5.12,14.02,5.73,28.88,6.37,43.63.81,18.68.91,37.42.79,56.13-.09,13.01-.44,25.79,4.21,38.13,1.98,5.24,2.35,11.16-2.87,15.36-5.2,4.19-11.07,2.38-16.52,2.56-2.57.09-2-5.65-2.05-8.84-.3-17.16-5.63-31.25-16.22-43.29-10.92-12.41-19.94-27.11-34.07-41.28,1.2,28.18,2.67,53.22.46,80.17-3.22-6.31-6.48-11.46-11.06-13.76-9.49-4.77-9.24-13.29-9.02-23.45.69-31.47,2.82-63.02-7.29-93.65-2.32-7.03-4.98-20.81,9.27-20.89,2.07-.01,2.95-2.94,3.42-5.89Z"/>
  <path class="cls-1" d="M52.51,237.7c-5.07-11.97-9.17-22.53-13.96-32.64-3.72-7.87-6.51-16.59-12.57-22.68C9.54,165.85,1.93,144.16.46,119.25c-1.59-26.91,1.41-53.74,1.83-80.62.01-.68-1.07-5.96,1.26-2.72,3.63,5.03,2.63-5.61,8.77-1.29,17.12,12.04,15.07,24.9,10.38,43.36-7.68,30.2-2.26,58.89,14.1,84.03,7.47,11.49,14.66,11.17,18.89-2.41,9.44-30.33,25.87-59.19,18.1-94.09-2.11-9.48,6.66-13.89,5.84-22.29,1.74.19,4.7-.26,5.05.67,4.75,12.74,12.64,23.92,10.82,39.67-4.35,37.65-14.69,72.36-33.29,103.45-.93,1.56-1.94,3.12-3.15,4.36q-14.56,14.95-6.3,36.77c.81,2.15,2.02,4.15-.24,9.55Z"/>
  <path class="cls-1" d="M544.55,212.14c-19.3-39.78-21.33-78.21-22.87-116.8-.33-8.28-3.81-12.34-11.25-9.97-10.1,3.21-20.57,5.23-30.3,9.58-9.42,4.21-16.41,1.15-23-6.2-4.32-4.82-7.75-10.99-6.01-17.88,1.55-6.13,7.46-4.15,11.71-4.89,26.83-4.64,54.13-4.72,80.77-11.13,14.22-3.42,28.43-7.18,42.33-12.08,9.68-3.41,13.66,3.15,16.56,11.18,3.74,10.35-4.5,12.92-9.55,14.51-12.85,4.06-26.06,6.53-39.18,9.31-13.44,2.85-14.14,5.37-11.7,20.79,2.44,15.4,2.66,31.28,4.04,46.92.78,8.85.61,17.6,7.5,24.64,6.61,6.76,2.21,14.85-2.93,19.5-5.51,4.99-9.46,9.78-6.13,22.52Z"/>
</svg>